# xmcd CD database file
#
# Track frame offsets:
#	150
#	97706
#	239130
#	279255
#
# Disc length: 4328 seconds
#
# Revision: 0
# Processed by: cddbd v1.5.2PL0 Copyright (c) Steve Scherf et al.
# Submitted via: CDex 1.70beta2
#
DISCID=2b10e604
DTITLE=POPA CHUBBY - Live At The Olympic [CD 2)
DYEAR=2002
DGENRE=Blues
TTITLE0=NYC Blues
TTITLE1=Stop Down Baby
TTITLE2=White Devil
TTITLE3=Sleepwalk
EXTD=YEAR: 2002
EXTT0=
EXTT1=
EXTT2=
EXTT3=
PLAYORDER=
